ply
format ascii 1.0
comment author : Iconeus
comment object : Atlas mesh
element vertex 29
property float x
property float y
property float z
element face 44
property list uchar int vertex_index
end_header
12505.400391 5357.950195 5682.660156
12535.299805 5371.770020 5694.919922
12504.400391 5346.609863 5696.750000
12550.299805 5397.250000 5699.810059
12615.299805 5461.640137 5699.569824
12614.299805 5459.890137 5707.439941
12644.299805 5503.370117 5701.709961
12724.099609 5575.310059 5696.399902
12750.099609 5609.700195 5697.339844
12740.000000 5590.689941 5702.109863
12847.599609 5695.140137 5700.830078
12865.500000 5705.430176 5705.330078
12806.400391 5668.709961 5706.560059
12920.000000 5766.799805 5718.959961
12852.700195 5702.319824 5709.930176
12922.900391 5747.720215 5710.669922
12568.099609 5420.540039 5711.509766
12674.299805 5521.370117 5705.049805
12804.799805 5652.500000 5708.359863
12778.799805 5630.660156 5703.379883
12891.500000 5741.939941 5709.750000
12909.000000 5755.310059 5719.439941
12562.500000 5412.700195 5705.229980
12548.000000 5392.959961 5702.000000
12515.799805 5346.009766 5683.870117
12928.099609 5760.899902 5704.890137
12917.700195 5770.220215 5715.109863
12913.799805 5757.520020 5720.830078
12913.500000 5758.830078 5707.910156
3 0 1 2 
3 3 24 2 
3 3 4 24 
3 1 0 4 
3 1 4 5 
3 3 6 4 
3 7 4 6 
3 6 8 7 
3 9 4 7 
3 10 7 8 
3 7 10 9 
3 9 10 11 
3 8 12 10 
3 10 13 11 
3 10 14 15 
3 15 25 10 
3 6 3 16 
3 8 6 17 
3 18 9 11 
3 19 12 8 
3 14 12 19 
3 10 12 14 
3 26 20 11 
3 21 20 26 
3 21 26 27 
3 1 22 2 
3 22 1 5 
3 23 16 3 
3 6 16 17 
3 4 9 5 
3 8 17 19 
3 20 18 11 
3 23 2 22 
3 2 23 3 
3 22 16 23 
3 22 17 16 
3 5 17 22 
3 5 9 17 
3 9 18 17 
3 19 17 18 
3 14 19 18 
3 20 14 18 
3 28 14 20 
3 21 27 20 
